<?xml version="1.0" standalone="no"?>
<!DOCTYPE svg PUBLIC "-//W3C//DTD SVG 1.1//EN" "http://www.w3.org/Graphics/SVG/1.1/DTD/svg11.dtd" >
<!--
2013-9-30: Created.
-->
<svg>
<metadata>
Created by iconfont
</metadata>
<defs>

<font id="iconfont" horiz-adv-x="1024" >
  <font-face
    font-family="iconfont"
    font-weight="500"
    font-stretch="normal"
    units-per-em="1024"
    ascent="896"
    descent="-128"
  />
    <missing-glyph />
    
    <glyph glyph-name="mingxing" unicode="&#58881;" d="M512.511489 894.977023q106.38961 0 199.480519-39.896104t162.653347-109.458541 109.458541-162.653347 39.896104-199.480519-39.896104-199.480519-109.458541-162.653347-162.653347-109.458541-199.480519-39.896104-199.480519 39.896104-162.653347 109.458541-109.458541 162.653347-39.896104 199.480519 39.896104 199.480519 109.458541 162.653347 162.653347 109.458541 199.480519 39.896104zM854.185814 424.407592q3.068931 4.091908 6.137862 9.718282t3.068931 13.81019q0 11.252747-7.160839 20.45954-5.114885 6.137862-10.22977 8.695305t-10.22977 3.58042q-5.114885 2.045954-9.206793 2.045954l-7.160839 0-197.434565 0q-5.114885 0-9.206793 4.091908-6.137862 4.091908-6.137862 8.183816l-57.286713 204.595405q-2.045954 5.114885-3.58042 9.718282t-4.603397 9.718282q-4.091908 4.091908-10.741259 9.206793t-17.902098 6.137862q-11.252747-1.022977-18.413586-6.137862t-10.22977-9.206793q-3.068931-5.114885-4.603397-9.718282t-3.58042-9.718282l-57.286713-204.595405q0-4.091908-6.137862-8.183816-4.091908-4.091908-9.206793-4.091908l-197.434565 0q-5.114885 0-10.741259-0.511489t-11.764236-3.58042q-9.206793-3.068931-14.321678-10.22977-9.206793-9.206793-7.160839-20.45954 0-8.183816 2.557443-13.81019t5.626374-9.718282q5.114885-6.137862 15.344655-11.252747l158.561439-104.343656q2.045954-2.045954 4.603397-7.160839t2.557443-10.22977l0-3.068931-62.401598-201.526474q-1.022977-5.114885-2.045954-9.206793t-1.022977-9.206793q0-4.091908 1.022977-9.718282t6.137862-12.787213q4.091908-6.137862 11.764236-9.718282t13.81019-3.58042q13.298701 1.022977 19.436563 4.603397t12.275724 8.695305l155.492507 131.964036q1.022977 3.068931 8.183816 3.068931 5.114885 0 7.160839-2.045954l163.676324-134.00999q7.160839-4.091908 13.81019-7.672328t17.902098-4.603397l1.022977 0q6.137862 0 13.298701 3.58042t11.252747 9.718282q5.114885 7.160839 6.649351 12.275724t1.534466 9.206793q0 5.114885-1.022977 9.718282t-3.068931 9.718282l-69.562438 203.572428q-1.022977 1.022977-1.022977 3.068931 0 4.091908 2.557443 9.206793t4.603397 6.137862l157.538462 104.343656q9.206793 4.091908 14.321678 11.252747z"  horiz-adv-x="1025" />

    
    <glyph glyph-name="chongzhi" unicode="&#58880;" d="M512 899.74404741q106.8770797 0 200.70521363-40.38959408t163.4225114-110.60534992 109.98397156-164.04388978 40.38959408-200.70521363-40.38959408-200.08383525-109.98397156-163.42251142-163.4225114-110.60534992-200.70521363-40.38959408-200.08383525 40.38959408-163.42251142 110.60534992-110.60534992 163.42251142-40.38959408 200.08383525 40.38959408 200.70521363 110.60534992 164.04388978 163.42251142 110.60534992 200.08383525 40.38959408zM813.989888 150.36173275q6.2137837 17.39859437 9.94205392 39.14683733t6.21378371 46.60337777q-17.39859437 6.2137837-34.17581038 13.04894578t-34.17581036 14.29170252q-1.24275675-14.91308089-3.72827022-33.554432t-6.2137837-42.25372918q-6.2137837-37.28270222-54.6812966-37.28270222l-37.28270222 0q-49.71026963-3.72827022-45.9819994 42.25372917l0 167.77216 94.44951228 2.48551349 43.49648594-43.49648593 55.92405333 49.71026963q-48.46751289 43.49648592-96.31364741 85.75021511t-95.07089067 82.02194489l-48.46751289-37.28270222q6.2137837-6.2137837 15.53445926-14.29170252t21.74824296-20.50548622q27.3406483-23.61237808 38.52545897-38.52545897l-293.29059082-7.45654043q67.108864 55.92405333 159.07286282 147.88805214l311.93194193 0 0 68.35162074-262.2216723 0q-1.24275675 3.72827022-2.48551348 11.18481067l-4.97102697 17.39859437q-6.2137837 19.88410785-10.56343229 32.31167525t-5.59240533 19.88410786l-82.0219449-8.69929719q2.48551348-6.2137837 6.21378371-18.64135111t9.94205393-29.82616178q6.2137837-18.64135111 7.45654043-23.61237807l-288.31956384 0 0-68.35162074 223.69621334 0q-58.40956682-64.62335052-119.30464712-113.09086341-27.3406483-27.3406483-64.62335052-43.49648593l36.03994548-68.35162073q9.94205392 2.48551348 29.20478341 4.97102696t51.57440475 4.97102697l29.82616177 0q0-93.20675555-41.01097244-134.217728-36.03994548-43.49648592-154.10183586-80.77918816 2.48551348-4.97102697 6.2137837-10.56343229t9.94205393-14.29170252q9.94205392-13.67032415 16.777216-23.61237808t10.5634323-17.39859437q241.0948077 74.56540445 226.18172682 287.07680712l90.72124206 2.48551347 0-188.89902459q-2.48551348-86.99297185 89.47848534-83.26470163l80.77918815 0q88.23572859-3.72827022 103.14880948 62.13783705z"  horiz-adv-x="1024" />

    
    <glyph glyph-name="65" unicode="&#58953;" d="M439.02179555 295.99402667000004L280.57031111 454.41479111 257.36988445 431.21550222 415.79064889 272.79473778 438.98993778 249.59544888999994 462.22108445 272.79473778 766.63011555 577.23562667 743.43082667 600.43491555ZM996.80824889 779.5712c-261.99950222-9.08401778-428.17422222 78.28138667-477.07249778 108.24135111-2.90019555 1.76241778-5.65589333 3.46112-7.72209778 4.77411556-2.06620445-1.31413333-4.85489778-3.01169778-7.69024-4.77411556C455.36142222 857.85258667 289.23448889 770.48718222 27.1872 779.5712c0 0-75.36526222-656.06428445 480.62919111-902.17130667 1.42563555-0.62464 2.77162667-1.36192 4.19726222-1.98656 1.44270222 0.62464 2.75569778 1.36192 4.18247112 1.98656C1072.22129778 123.50691555000003 996.80824889 779.5712 996.80824889 779.5712zM511.99772445-88.50659555000004c-458.27982222 209.25781333-461.72387555 706.46897778-454.54563556 834.62485333 2.53155555-0.01592889 5.04718222-0.01592889 7.56167111-0.01592889 231.65496889 0 384.22755555 71.55256889 447.01582222 108.09685333 62.56412445-36.48056889 215.07299555-108.09685333 446.90432-108.09685333 0.03185778 0 5.07904 0 7.62538667 0.03185778C973.7216 617.96238222 970.32419555 120.83086221999997 511.99772445-88.50659555000004z"  horiz-adv-x="1024" />

    
    <glyph glyph-name="fenxiao" unicode="&#58937;" d="M1017.17333333 261.12l-136.53333333 0c-54.61333333 95.57333333-157.01333333 218.45333333-341.33333333 225.28L539.30666667 636.58666667l88.74666666 0c13.65333333 0 27.30666667 13.65333333 27.30666667 27.30666666L655.36 882.34666667c0 13.65333333-13.65333333 27.30666667-27.30666667 27.30666666L402.77333333 909.65333333C389.12 909.65333333 375.46666667 902.82666667 375.46666667 882.34666667l0-218.45333334c0-13.65333333 13.65333333-27.30666667 27.30666666-27.30666666l88.74666667 0 0-150.18666667c-191.14666667-6.82666667-293.54666667-122.88-341.33333333-225.28l-136.53333334 0c-13.65333333 0-27.30666667-13.65333333-27.30666666-27.30666667l0-218.45333333c0-13.65333333 13.65333333-27.30666667 27.30666666-27.30666667l218.45333334 0c13.65333333 0 27.30666667 13.65333333 27.30666666 27.30666667l0 218.45333333c0 13.65333333-13.65333333 27.30666667-27.30666666 27.30666667L191.14666667 261.12c47.78666667 81.92 136.53333333 177.49333333 300.37333333 184.32l0-184.32L402.77333333 261.12C389.12 261.12 375.46666667 254.29333333 375.46666667 240.64l0-218.45333333c0-13.65333333 13.65333333-27.30666667 27.30666666-27.30666667l218.45333334 0c13.65333333 0 27.30666667 13.65333333 27.30666666 27.30666667l0 218.45333333c0 13.65333333-13.65333333 27.30666667-27.30666666 27.30666667L532.48 267.94666667 532.48 445.44c157.01333333-6.82666667 252.58666667-95.57333333 300.37333333-184.32l-34.13333333 0c-13.65333333 0-27.30666667-13.65333333-27.30666667-27.30666667l0-218.45333333c0-13.65333333 13.65333333-27.30666667 27.30666667-27.30666667l218.45333333 0c13.65333333 0 27.30666667 13.65333333 27.30666667 27.30666667l0 218.45333333C1044.48 254.29333333 1030.82666667 261.12 1017.17333333 261.12z"  horiz-adv-x="1024" />

    
    <glyph glyph-name="brand" unicode="&#58976;" d="M1056.60416 561.67537778c-4.22343111 29.41838222-19.87925333 51.26371555-47.04028445 63.93400889-24.53959111 11.50520889-50.82680889 14.41792-77.40529777 11.28675555-30.51064889-3.64088889-53.66670222-19.22389333-65.68163556-48.20536889-10.34012445-24.68522667-11.65084445-50.60835555-6.77205333-76.82275555 3.20398222-16.74808889 11.21393778-31.09319111 25.34058666-41.43331556 0.72817778-0.50972445 1.16508445-1.23790222 1.82044445-1.96608-51.48216889-56.21532445-102.67306667-112.13937778-154.81059555-169.01006222-16.23836445 102.16334222-32.18545778 203.1616-48.2053689 303.79576889 8.73813333 3.78652445 17.18499555 6.77205333 25.04931556 10.84984889 36.77297778 19.07825778 59.63776 47.47719111 58.47267556 90.73095111-1.01944889 34.87971555-16.60245333 61.53102222-48.93354667 76.16739556-31.31164445 14.12664889-63.86119111 15.72864-96.55637333 4.73315555C592.82773333 776.12373333 573.23975111 756.82702222 566.03079111 726.68046222 560.13255111 701.77678222 563.48216889 677.67409778 574.47765333 654.73649778c6.40796445-13.25283555 16.01991111-23.59296 29.05429334-30.51064889 3.42243555-1.74762667 6.99050667-3.20398222 10.63139555-4.87879111C575.35146667 541.0679466700001 536.75804445 463.44419555 497.58208 384.58254222c-29.12711111 79.00728889-57.89013333 156.63104-86.58033778 234.25479111C430.22563555 628.15800889 434.81315555 630.77944889 441.14830222 640.1001244500001c19.00544 27.74357333 24.02986667 58.25422222 14.70919111 90.29404444-8.73813333 30.07374222-28.47175111 50.38990222-59.27367111 58.25422222-30.51064889 7.64586667-60.73002667 5.60696889-89.71150222-6.5536-26.94257778-11.35957333-43.69066667-31.60291555-47.91409778-60.94848C255.24451555 695.66008889 260.99712 671.77585778 272.06542222 649.05671111c8.51968-17.47626667 21.11715555-31.53009778 39.3216-39.17596444 8.81095111-3.71370667 18.27726222-5.67978667 28.39893333-8.73813334C318.23189333 501.81916445 296.53219555 401.98599111 274.61404445 300.76928c-45.65674667 56.65223111-90.29404445 112.13937778-134.3488 166.75271111 5.24288 6.11669333 10.99548445 11.14112 14.78200888 17.40344889 13.76256 22.86478222 17.40344889 47.69564445 10.70421334 73.61877333-8.30122667 32.03982222-25.63185778 57.23477333-56.94350222 70.63324445C87.39953778 638.35249778 64.68039111 639.8816711100001 42.10688 636.24078222 7.73688889 630.70663111-16.43861333 611.99246222-27.57973333 578.2050133299999-34.71587555 556.57813333-35.66250667 534.22307555-32.02161778 512.08647111c5.67978667-34.22435555 23.73859555-59.20085333 57.45322667-71.14296889C42.54378667 434.97244445 60.31132445 433.22481778 78.22449778 434.53553778 84.41400889 434.97244445 86.23445333 432.93354667 87.98208 427.54503111c26.79694222-86.87160889 53.88515555-173.6704 80.75491555-260.54200889 1.52917333-4.95160889 3.49525333-6.48078222 8.66531556-6.48078222 221.87576889 0.14563555 443.67872 0.14563555 665.55448889 0 5.46133333 0 7.50023111 1.60199111 9.10222222 6.77205333 27.37948445 88.18232889 54.97742222 176.36465778 82.42972445 264.54698667 1.52917333 4.66033778 3.42243555 5.46133333 8.22840888 5.24288 12.59747555-0.50972445 25.48622222-1.31072 37.86524445 0.50972445 28.61738667 4.22343111 51.40935111 18.13162667 64.51655111 44.8557511C1057.25952 507.49895111 1060.46350222 534.29589333 1056.60416 561.67537778zM171.28561778-25.163093330000038c226.68174222 0 452.99939555 0 679.31704889 0 0 50.60835555 0 100.85262222 0 151.16970666-226.60892445 0-452.85376 0-679.31704889 0C171.28561778 75.54389332999995 171.28561778 25.22680889000003 171.28561778-25.163093330000038z"  horiz-adv-x="1024" />

    
    <glyph glyph-name="quality" unicode="&#58979;" d="M512.06826667-33.72373332999996c-170.8032 192.9216-341.26506667 385.36533333-512 578.21866666 1.29706667 1.77493333 2.4576 3.41333333 3.6864 5.05173334 61.71306667 82.60266667 123.56266667 165.2736 185.1392 247.94453333 2.32106667 3.14026667 4.77866667 4.16426667 8.53333333 4.16426667 209.85173333-0.06826667 419.6352-0.06826667 629.41866667 0 3.4816 0 5.87093333-0.68266667 8.12373333-3.6864 62.12266667-83.3536 124.3136-166.57066667 186.50453333-249.78773334 0.8192-1.09226667 1.4336-2.18453333 2.52586667-3.6864C853.46986667 351.91466667 682.93973333 159.33439999999996 512.06826667-33.72373332999996zM512.27306667 98.78186667c4.7104 5.46133333 9.07946667 10.78613333 13.7216 15.70133333 4.23253333 4.57386667 6.9632 9.6256 8.66986666 15.63306667 27.0336 92.09173333 54.272 184.04693333 81.5104 276.0704C618.9056 415.26613333 621.49973333 424.27733333 624.29866667 433.7664 621.9776 433.62986667 620.47573333 433.62986667 618.97386667 433.3568 589.48266667 428.2368 559.9232 423.04853333 530.432 418.06506667 522.0352 416.63146667 513.2288 413.83253333 505.17333333 415.19786667 480.11946667 419.15733333 455.2704 424.82346667 430.35306667 429.80693333 421.00053333 431.7184 411.57973333 433.49333333 401.54453333 435.4048c0.6144-2.73066667 1.024-4.57386667 1.57013334-6.3488 29.01333333-98.16746667 58.29973333-196.26666667 86.8352-294.63893333C494.04586667 120.08106667000004 501.76 109.29493333000005 512.27306667 98.78186667zM312.66133333 508.7232c0 1.16053333 0.06826667 1.70666667 0 2.18453333C297.02826667 563.8826666699999 281.3952 616.8576 265.55733333 669.696 265.14773333 671.1978666699999 262.5536 672.9728 260.9152 673.04106667 252.58666667 673.3824 244.18986667 672.90453333 235.79306667 673.2458666699999 231.35573333 673.45066667 228.5568 671.8805333299999 225.8944 668.4672c-21.7088-27.648-43.69066667-55.0912-65.46773333-82.60266667-10.8544-13.65333333-21.64053333-27.37493333-32.63146667-41.1648 4.096-4.84693333 7.03146667-9.6256 14.19946667-10.6496C188.89386667 527.36 235.79306667 520.192 282.76053333 513.16053333 292.59093333 511.72693333 302.4896 510.22506667 312.66133333 508.7232zM896 544.5632c-0.2048 0.47786667-0.2048 0.68266667-0.34133333 0.8192-32.42666667 41.71093333-64.7168 83.42186667-97.28 124.99626667-1.29706667 1.57013333-4.096 2.59413333-6.21226667 2.73066666-8.3968 0.27306667-16.72533333-0.13653333-25.05386667 0.2048-4.43733333 0.2048-6.21226667-1.36533333-7.3728-5.5296-14.60906667-49.83466667-29.42293333-99.66933333-44.10026666-149.43573333-0.88746667-2.93546667-1.57013333-6.00746667-2.4576-9.216 1.29706667-0.06826667 1.77493333-0.2048 2.32106666-0.13653333 54.40853333 8.192 108.81706667 16.5888 163.29386667 24.30293333C886.92053333 534.39146667 891.97226667 537.8730666700001 896 544.5632zM587.22986667 489.8816c-0.88746667 2.79893333-1.36533333 4.57386667-1.97973334 6.3488C565.52106667 550.3658666700001 545.72373333 604.5013333300001 525.99466667 658.6368c-5.39306667 14.60906667-5.39306667 14.47253333-21.16266667 14.60906667-4.096 0-5.9392-1.29706667-7.30453333-5.12-20.75306667-57.20746667-41.64266667-114.34666667-62.53226667-171.55413334C434.3808 494.86506667 433.90293333 493.02186667 433.3568 491.04213333c1.29706667-0.34133333 2.18453333-0.6144 3.072-0.75093333 20.0704-3.00373333 40.1408-6.144 60.2112-9.0112 7.09973333-1.024 14.336-2.18453333 21.36746667-1.6384 11.8784 1.024 23.68853333 3.2768 35.49866666 5.12C564.49706667 486.4 575.55626667 488.10666667 587.22986667 489.8816zM200.43093333 461.96053333C200.22613333 461.55093333 200.0896 461.14133333 199.8848 460.73173333c64.03413333-74.27413333 128-148.54826667 192.03413333-222.89066666 0.8192 1.36533333 0.8192 2.11626667 0.54613334 2.8672C373.00906667 306.85866667000005 353.34826667 372.94079999999997 333.89226667 439.15946667 332.93653333 442.29973333 331.63946667 443.73333333 328.2944 444.2112 299.07626667 448.1024 269.99466667 452.26666667 240.91306667 456.36266667 227.39626667 458.20586667 213.87946667 460.11733333 200.43093333 461.96053333zM824.7296 461.27786667c-1.8432 0-2.59413333 0.06826667-3.2768 0-40.61866667-5.59786667-81.16906667-11.33226667-121.856-16.72533334-5.05173333-0.68266667-6.82666667-3.072-8.05546667-7.50933333-16.1792-55.296-32.63146667-110.592-48.9472-165.888-2.8672-9.76213333-5.7344-19.52426667-8.53333333-29.35466667 0.34133333-0.2048 0.75093333-0.4096 1.09226667-0.6144C698.09493333 314.36800000000005 761.10506667 387.4816 824.7296 461.27786667zM588.1856 672.90453333c19.6608-53.93066667 38.98026667-106.97386667 58.368-160.01706666C647.03146667 513.024 647.44106667 513.16053333 647.85066667 513.29706667c15.70133333 53.0432 31.3344 106.15466667 47.17226666 159.60746666C659.31946667 672.90453333 624.2304 672.90453333 588.1856 672.90453333zM375.6032 522.17173333C376.0128 522.0352 376.4224 521.9669333300001 376.832 521.89866667c18.29546667 50.10773333 36.59093333 100.21546667 55.0912 150.9376-33.92853333 0-66.9696 0-100.82986667 0C346.04373333 622.3872 360.8576 572.2794666699999 375.6032 522.17173333z"  horiz-adv-x="1024" />

    
    <glyph glyph-name="pintuanxuanzexinyishangpin" unicode="&#58954;" d="M512 895.981569C229.237065 895.981569 0.017919 666.762423 0.017919 383.99948800000004c0-282.762935 229.219146-511.982081 511.982081-511.982081 282.762935 0 511.982081 229.218122 511.982081 511.982081C1023.982081 666.762423 794.762935 895.981569 512 895.981569zM655.245583 250.663771c-26.49901-28.340086-54.907701-54.997809-85.951036-78.42904-14.204346-10.749511-31.567602-25.318386-50.088954-29.204307-1.841077-0.704483-3.99958-1.045461-6.455031-0.864221-2.499482-0.181241-4.681536 0.159737-6.522613 0.910299-19.203309 4.159317-37.248521 20.158661-51.656634 31.544051-32.044766 25.36344-61.816346 53.817185-89.019838 84.201092-48.566329 54.270799-114.700705 132.973236-109.404794 211.106353 4.84025 71.110812 58.111665 128.790368 132.608707 127.291293 48.726066-1.000407 99.269658-22.317165 124.859393-63.520212 29.95282 42.725672 82.747071 68.883704 135.85875 62.884334 66.816333-7.545547 117.60977-60.020323 118.655231-128.018303C769.400519 386.159015 708.902007 307.95729400000005 655.245583 250.663771z"  horiz-adv-x="1024" />

    
    <glyph glyph-name="changjianwenti" unicode="&#58909;" d="M378.9 466.7c0 73.4 59.1 133.2 131.7 133.2 72.3 0 131.2-58.6 131.2-130.6 0-74-68.6-136.1-144.1-130.3-7 0.5-13-4.5-13-11.5L484.7 211 535 211l0 88.2c75.5 10.4 149.8 84 149.8 170.1 0 94.5-79.4 171.4-174.2 171.4-95.1 0-172.4-78-172.4-173.9L378.9 466.8zM514.6 181.10000000000002c-13.9 0-25.2-11.2-25.2-25.1 0-13.9 11.3-25.2 25.2-25.2 13.9 0 25.1 11.3 25.1 25.2C539.7 169.79999999999995 528.5 181.10000000000002 514.6 181.10000000000002zM653 865.3C270.6 968.6-70.9 627.1 32.3 244.70000000000005c45-166.6 177.2-298.9 343.9-343.8 382.4-103.2 723.9 238.3 620.7 620.7C951.9 688.1 819.7 820.4 653 865.3zM639.6-50.799999999999955C295.1-144.20000000000005-12.7 163.60000000000002 80.7 508.1 121.2 657.8 239.9 776.4 389.6 817c344.5 93.4 652.3-214.4 558.9-558.9C907.9 108.39999999999998 789.3-10.299999999999955 639.6-50.799999999999955z"  horiz-adv-x="1024" />

    
    <glyph glyph-name="shouhou" unicode="&#58956;" d="M934.399999 640.000001c-70.4 121.6-179.199999 204.799999-313.599999 236.799999-185.599999 51.2-383.999999-6.4-511.999999-153.6L19.200001 780.8l6.4-223.999999c0-19.2 25.6-32 38.4-19.2l191.999999 115.2L166.400001 697.600001c115.2 121.6 287.999999 166.4 447.999999 128 115.2-32 217.599999-108.8 275.199999-211.199999 64-108.8 76.8-230.399999 44.8-345.599999-32-115.2-108.8-217.599999-211.199999-275.199999-108.8-64-230.399999-76.8-345.599999-44.8-121.6 32-217.599999 108.8-281.599999 217.599999-6.4 12.8-25.6 19.2-38.4 12.8-12.8-6.4-19.2-25.6-12.8-38.4 70.4-121.6 179.199999-204.799999 313.599999-243.199999C403.2-121.59999700000003 448-127.99999700000001 492.8-127.99999700000001c89.6 0 179.199999 25.6 255.999999 70.4 121.6 70.4 204.799999 179.199999 236.799999 313.599999C1023.999999 384.000001 1004.799999 518.400001 934.399999 640.000001zM665.6 179.20000200000004L665.6 313.600002 339.2 313.600002l0-140.8 64 0L403.2 192.000002l204.799999 0 0-19.2L665.6 172.80000199999995zM403.2 236.80000199999995L403.2 268.80000199999995l204.799999 0 0-32L403.2 236.80000199999995zM377.6 595.2000009999999C352 550.400001 326.400001 512.000001 288.000001 480.000001c6.4-19.2 19.2-38.4 25.6-64C320.000001 422.400001 332.800001 435.200001 339.2 441.600001l0-115.2 57.6 0L396.8 332.80000199999995l300.799999 0L697.599999 371.20000100000004 550.4 371.20000100000004 550.4 396.800001l121.6 0L672 435.200001 550.4 435.200001 550.4 454.400001l121.6 0L672 492.800001 550.4 492.800001 550.4 512.000001l140.8 0L691.199999 550.400001l-128 0C556.8 569.600001 544 582.400001 537.6 601.600001L480 588.8000010000001C486.4 576.000001 492.8 563.2000009999999 492.8 550.400001L416 550.400001c6.4 6.4 12.8 19.2 12.8 25.6L377.6 595.2000009999999zM492.8 371.20000100000004L396.8 371.20000100000004 396.8 396.800001l102.4 0L499.2 371.20000100000004zM492.8 435.200001L396.8 435.200001 396.8 454.400001l102.4 0L499.2 435.200001zM492.8 512.000001l0-25.6L396.8 486.400001 396.8 512.000001 492.8 512.000001z"  horiz-adv-x="1024" />

    
    <glyph glyph-name="kefu" unicode="&#58883;" d="M511.743309 729.423872c-169.588736 0-307.044352-137.455616-307.044352-307.043328 0-169.561088 137.455616-307.04128 307.044352-307.04128 169.562112 0 307.04128 137.480192 307.04128 307.04128C818.783565 591.968256 681.304397 729.423872 511.743309 729.423872zM383.807821 524.7293440000001c28.260352 0 51.1744-22.888448 51.1744-51.1744 0-28.260352-22.914048-51.1744-51.1744-51.1744s-51.1744 22.914048-51.1744 51.1744C332.633421 501.840896 355.547469 524.7293440000001 383.807821 524.7293440000001zM511.743309 217.68499199999997c-142.053376 0-179.109888 153.520128-179.109888 153.520128l51.1744 0c0 0 9.494528-102.346752 127.935488-102.346752 118.413312 0 127.934464 102.346752 127.934464 102.346752l51.172352 0C690.849101 371.20511999999997 653.794637 217.68499199999997 511.743309 217.68499199999997zM639.676749 422.380544c-28.2624 0-51.1744 22.914048-51.1744 51.1744 0 28.285952 22.912 51.1744 51.1744 51.1744 28.261376 0 51.172352-22.888448 51.172352-51.1744C690.849101 445.294592 667.938125 422.380544 639.676749 422.380544zM972.307789 524.7293440000001l-51.1744 0c0 0-102.897664 307.067904-409.391104 307.067904-307.667968 0-409.392128-307.067904-409.392128-307.067904s-14.76608 0-51.173376 0c-52.173824 0-51.175424-51.1744-51.175424-51.1744s0-83.608576 0-153.522176c0-49.649664 51.175424-51.1744 51.175424-51.1744l51.173376 0c0 0-0.423936-332.655616 332.63104-332.655616L537.328973-63.79724799999997c34.10944 1.69984 51.1744 0 51.1744 51.202048 0 22.385664-0.101376 51.1744-51.1744 51.1744-38.431744 0-37.331968 0-51.1744 0-51.422208 0-51.172352-26.688512-51.172352-51.1744-100.849664 0-281.45664 77.708288-281.45664 281.453568L153.525581 499.140608c0 0 85.456896 281.457664 358.217728 281.457664 274.10944 0 358.21568-281.457664 358.21568-281.457664l0-230.28224c0 0 59.570176 0 102.3488 0 49.523712 0 51.171328 51.1744 51.171328 51.1744s0 112.367616 0 153.522176C1023.479117 526.526464 972.307789 524.7293440000001 972.307789 524.7293440000001z"  horiz-adv-x="1025" />

    
    <glyph glyph-name="miaosha" unicode="&#58906;" d="M383.607808 704.195584c0 105.993216-85.8624 191.804416-191.803392 191.804416-105.94304 0-191.804416-85.8112-191.804416-191.804416 0-105.889792 47.500288-191.803392 153.443328-191.803392C178.866176 614.7870720000001 278.463488 691.559424 383.607808 704.195584zM779.575296 96.08396800000003c55.960576 63.178752 89.934848 146.275328 89.934848 237.290496 0 197.799936-160.284672 358.034432-358.033408 358.034432-197.748736 0-358.034432-160.234496-358.034432-358.034432 0-82.710528 28.060672-158.877696 75.177984-219.50464L105.991168-87.79264c-7.59296-12.485632-3.0976-28.521472 10.089472-35.765248 13.136896-7.191552 30.01856-2.893824 37.61152 9.58976L266.78784 72.01894400000003c64.012288-59.957248 150.060032-96.676864 244.68992-96.676864 86.647808 0 166.102016 30.785536 228.032512 82.008064l104.177664-171.318272c7.589888-12.483584 24.474624-16.782336 37.610496-9.58976 13.187072 7.243776 17.68448 23.278592 10.090496 35.765248L779.575296 96.08396800000003zM668.115968 310.998016L511.476736 310.998016c-12.338176 0-22.377472 10.04032-22.377472 22.377472L489.099264 534.7696639999999c0 12.388352 10.039296 22.376448 22.377472 22.376448 12.337152 0 22.377472-9.988096 22.377472-22.376448l0-179.016704 134.26176 0c12.338176 0 22.378496-9.988096 22.378496-22.378496C690.49344 321.03833599999996 680.454144 310.998016 668.115968 310.998016zM831.15008 896c-105.942016 0-191.804416-85.8112-191.804416-191.804416 105.142272-12.63616 204.73856-89.408512 230.16448-191.803392 105.942016 0 153.443328 85.9136 153.443328 191.803392C1022.952448 810.1888 937.091072 896 831.15008 896z"  horiz-adv-x="1024" />

    
    <glyph glyph-name="hezuoshixin" unicode="&#58940;" d="M416 448C416 448 416 448 416 448c121.6 0 243.2 134.4 243.2 134.4l19.2 19.2 230.4-243.2c44.8 44.8 115.2 128 115.2 230.4 6.4 70.4-25.6 134.4-83.2 192C768 960 588.8 793.6 582.4 787.2L300.8 499.2C332.8 467.2 371.2 448 416 448zM288 339.2c6.4 6.4 6.4 12.8 6.4 19.2 0 12.8-6.4 19.2-12.8 25.6C268.8 396.8 256 396.8 243.2 396.8 236.8 396.8 224 390.4 217.6 384l-102.4-128c-12.8-19.2-12.8-44.8 6.4-57.6 12.8-12.8 32-12.8 44.8 0 0 0 0 0 0 6.4l102.4 128C275.2 332.8 281.6 332.8 288 339.2zM377.6 249.6C377.6 256 384 268.8 384 275.2c0 12.8-6.4 19.2-12.8 25.6C358.4 313.6 352 313.6 339.2 313.6c-6.4 0-12.8 0-19.2-6.4 0 0 0 0 0-6.4l-102.4-128c0-6.4-6.4-6.4-12.8-12.8-6.4-19.2-6.4-38.4 12.8-51.2 6.4-6.4 19.2-6.4 32-6.4 6.4 0 12.8 6.4 19.2 6.4 0 0 0 0 0 0l102.4 128C371.2 243.2 371.2 249.6 377.6 249.6zM467.2 166.4c6.4 19.2 6.4 38.4-12.8 51.2-6.4 6.4-12.8 6.4-25.6 6.4 0 0 0 0-6.4 0-6.4 0-12.8-6.4-19.2-6.4 0 0 0 0 0 0l-102.4-128c0 0-6.4-6.4-6.4-6.4-6.4-6.4-6.4-19.2-6.4-25.6 0-12.8 6.4-19.2 12.8-25.6 6.4-6.4 19.2-12.8 32-6.4 6.4 0 19.2 6.4 25.6 12.8 0 0 0 6.4 6.4 6.4L467.2 166.4C467.2 166.4 467.2 166.4 467.2 166.4zM576 115.2c0 12.8-6.4 19.2-12.8 25.6-6.4 6.4-19.2 6.4-25.6 6.4-12.8 0-19.2-6.4-25.6-12.8 0 0 0-6.4-6.4-6.4l-102.4-128c0 0 0 0 0-6.4-6.4-6.4-6.4-12.8-6.4-19.2 0-12.8 6.4-19.2 12.8-25.6 19.2-12.8 44.8-12.8 57.6 6.4l102.4 128C569.6 96 576 102.4 576 115.2zM576 25.6l-57.6-70.4 32-32c6.4-6.4 19.2-12.8 32-12.8 12.8 0 25.6 6.4 32 12.8 6.4 6.4 12.8 19.2 12.8 32 0 12.8-6.4 25.6-12.8 32L576 25.6zM755.2 448C755.2 448 755.2 454.4 755.2 448l-83.2 89.6C633.6 492.8 531.2 403.2 416 403.2c0 0 0 0 0 0-64 0-121.6 25.6-166.4 83.2L236.8 505.6l236.8 236.8L448 768c0 0-83.2 83.2-192 83.2C192 851.2 128 825.6 70.4 768 19.2 723.2 0 665.6 0 608c0-115.2 96-217.6 128-256l51.2 64c12.8 19.2 38.4 32 57.6 32 25.6 0 44.8-6.4 64-19.2 19.2-12.8 32-38.4 32-57.6 0 0 0-6.4 0-6.4 19.2 0 44.8-6.4 57.6-19.2 19.2-12.8 32-38.4 32-57.6 0 0 0-6.4 0-6.4 19.2 0 44.8-6.4 57.6-19.2 19.2-12.8 32-38.4 32-57.6 25.6 6.4 51.2 0 70.4-19.2 19.2-12.8 32-38.4 32-57.6 0-19.2 0-38.4-12.8-57.6l44.8-44.8c6.4-6.4 19.2-12.8 32-12.8 12.8 0 25.6 6.4 32 12.8 6.4 6.4 12.8 19.2 12.8 32 0 12.8-6.4 25.6-12.8 32 0 0 0 0-6.4 6.4l-160 166.4c-6.4 12.8-6.4 25.6 0 32 6.4 6.4 19.2 6.4 32 0 0 0 6.4 0 6.4-6.4l160-166.4c0 0 0 0 0 0 19.2-12.8 44.8-12.8 64 0 19.2 12.8 19.2 38.4 6.4 57.6 0 0-6.4 6.4-6.4 6.4l-160 166.4c-6.4 12.8-6.4 25.6 0 32 6.4 6.4 19.2 6.4 25.6 6.4 6.4 0 6.4 0 12.8-6.4l160-166.4c0 0 0-6.4 6.4-6.4 19.2-12.8 38.4-12.8 57.6 6.4 6.4 6.4 12.8 19.2 12.8 32 0 12.8-6.4 25.6-12.8 32L755.2 448z"  horiz-adv-x="1025" />

    
    <glyph glyph-name="youhuiquan" unicode="&#58905;" d="M64 896l0-1012.8 116.992 116.992 108.544-108.544 108.544 108.544 110.176-110.176 110.112 110.112 106.912-106.912 106.976 106.976 127.744-127.744 0 1023.552-896 0zM643.232 435.712l0-49.088-89.632 0 0-42.4 89.632 0 0-49.088-89.632 0 0-71.136-84.8 0 0 71.136-92.576 0 0 49.088 92.576 0 0 42.4-92.576 0 0 49.088 75.904 0-100.128 172.288 89.344 0 73.184-154.432 1.088 0c2.368 5.76 6.016 14.112 11.04 25.024l60.576 129.408 84.768 0-103.072-172.288c0 0 74.304 0 74.304 0zM64-128l3.136 0-3.136 3.136z"  horiz-adv-x="1024" />

    
    <glyph glyph-name="jifenguizeguankong" unicode="&#59053;" d="M26.70195143 660.59924761a474.24519585 243.71503408000007 0 1 1 970.59609714 0 474.24519585 243.71503408000007 0 1 1-970.59609714 0ZM512 336.17262213000004c-198.22821861 0-368.69094939 61.0786078-444.03046385 148.6112419-26.52605645-30.81935621-41.26758471-64.91612411-41.26758472-100.78386403 0-137.73703668 217.27546451-249.39510474 485.29804857-249.39510474s485.29804857 111.65806926 485.29804857 249.39510474c0 35.86773872-14.74028551 69.96450782-41.26758472 100.78386403C880.69094939 397.25122992 710.22821861 336.17262213000004 512 336.17262213000004zM512 52.69689321999999c-200.81512721 0-373.13824662 62.68191934-446.93530214 152.05010272-24.69795764-29.90903205-38.36274521-62.80735281-38.36274521-97.34500201 0-137.73703668 217.27546451-249.39510474 485.29804857-249.39510472s485.29804857 111.65806926 485.29804856 249.39510472c0 34.53889073-13.66478757 67.43596995-38.36274521 97.34500201C885.13824662 115.37881375999996 712.81512721 52.69689321999999 512 52.69689321999999z"  horiz-adv-x="1024" />

    
    <glyph glyph-name="kehu" unicode="&#59072;" d="M445.91357786 632.05971488c-70.13142057 0-126.95746416-59.91526499-126.95746415-133.80356121s56.82604358-133.80356119 126.95746415-133.80356118 126.9508413 59.91526499 126.9508413 133.80356118S516.04499843 632.05971488 445.91357786 632.05971488zM512.00331142 880.98844035c-274.49295917 0-496.99638881-222.50342836-496.99638881-496.98844035s222.50342836-496.98844035 496.99638881-496.98844035c274.48501199 0 496.98844035 222.50342836 496.98844036 496.98844035S786.48832342 880.98844035 512.00331142 880.98844035zM662.13258733 83.75867072999995c0 125.83543605-96.82563342 227.85790274-216.22828224 227.85790274-119.39337606 0-216.18456698-102.02246669-216.18456699-227.85790274L180.68298437 83.75867072999995c0 117.81962141 69.1696822 218.52002924 167.00739339 259.6562185-47.32125621 33.4210842-78.48238727 90.25772618-78.48238727 154.84126575 0 102.85835781 79.11029918 186.26998694 176.70558737 186.26998695 97.62045791 0 176.74665402-83.41162913 176.74665401-186.26998695 0-64.56631835-31.20352203-121.41885595-78.51550415-154.84126575 97.82048995-41.13618925 167.01401625-141.83527147 166.9729509-259.6562185L662.13258733 83.75867072999995zM843.33158825 130.73550209999996c0-0.11657447-0.04239094-0.30203391-0.04239096-0.48484343 0 0.0834563-0.00794846-0.28481266-0.08345628-0.53518284l-49.83157953 1.05446875c0 98.15696505-63.67081502 178.82247332-153.50066003 188.47960196-0.10862599 0-0.19340789 0.20003076-0.30998237 0.25037016-15.16129436 0.60141789-27.33802038 13.70676411-27.33802039 29.87351341 0 15.89915788 11.8243527 28.78460217 26.69288724 29.77283586 0.03311818 0.03311818 0.0847819 0.13512002 0.13512001 0.13512002 44.69303412 8.61855683 78.56716788 49.83952798 78.56716789 99.37834767 0 44.46650805-27.22144592 82.17302657-65.07765578 95.67975992-0.0834563 0.03179258-2.91965889 0.76965609-5.05376479 1.72344597-12.08267134 1.95924483-21.33046439 12.87087297-21.33046439 26.17492564 0 14.71089343 11.33023651 26.66109468 25.30591635 26.66109468 0.73653791 0 1.45585586-0.20135636 2.19239376-0.25037017 0.5431313 0.23447325 1.1207038 0.30070959 1.71549882 0.14969265 65.32007748-16.04885051 113.96206954-77.77101778 113.96206954-151.50962266 0-54.02295916-26.09941781-101.58796139-65.74795864-129.48500999 81.86436851-34.34308154 139.74488083-118.54026369 139.74488084-217.0310552L843.33158825 130.73550209999996z"  horiz-adv-x="1024" />

    
    <glyph glyph-name="caidan" unicode="&#58898;" d="M79.169331 782.649446l121.006899 0 0-120.557773-121.006899 0 0 120.557773ZM324.965581 782.649446l647.967334 0 0-120.557773-647.967334 0 0 120.557773ZM79.169331 451.450163l121.006899 0 0-120.557773-121.006899 0 0 120.557773ZM324.965581 451.450163l647.967334 0 0-120.557773-647.967334 0 0 120.557773ZM79.169331 141.159219l121.006899 0 0-120.334643-121.006899 0 0 120.334643ZM324.965581 141.159219l647.967334 0 0-120.334643-647.967334 0 0 120.334643Z"  horiz-adv-x="1024" />

    
    <glyph glyph-name="tuozhan" unicode="&#58933;" d="M995.631104 564.51618133c-20.81041067 55.730176-50.92693333 107.10903467-89.51534933 152.707072-19.484672 23.02634667-53.94705067 25.89218133-76.96930134 6.41024-23.023616-19.484672-25.89354667-53.94432-6.40887466-76.96930133C884.72917333 573.40996267 918.86933333 480.12765867 918.86933333 384c0-224.34747733-182.521856-406.86933333-406.86933333-406.86933333-224.34884267 0-406.86933333 182.521856-406.86933333 406.86933333 0 224.34884267 182.52049067 406.86933333 406.86933333 406.86933333 64.52155733 0 126.19502933-14.64183467 183.308288-43.52 26.91072-13.606912 59.768832-2.82350933 73.37984 24.09403734 13.611008 26.91618133 2.822144 59.77019733-24.09403733 73.37984C672.05666133 881.50016 593.80258133 900.096 512 900.096c-69.648384 0-137.24194133-13.65333333-200.90333867-40.58043733-61.46321067-25.997312-116.65134933-63.20128-164.03114666-110.58107734-47.37979733-47.37979733-84.58513067-102.567936-110.58107734-164.02978133C9.55733333 521.24330667-4.096 453.648384-4.096 384c0-69.648384 13.65333333-137.24330667 40.58043733-200.90333867 25.997312-61.46321067 63.20128-116.65134933 110.58107734-164.03114666s102.567936-84.58513067 164.03114666-110.58107734C374.75805867-118.44266667 442.351616-132.096 512-132.096c69.648384 0 137.24330667 13.65333333 200.904704 40.58043733 61.46321067 25.99594667 116.65134933 63.20128 164.02978133 110.58107734 47.37979733 47.37979733 84.58513067 102.567936 110.58107734 164.03114666C1014.44266667 246.75669332999996 1028.096 314.35161600000004 1028.096 384 1028.096 446.087168 1017.17333333 506.82129067 995.631104 564.51618133zM613.98766933 433.618944c8.86920533 7.151616 5.14048 26.11882667-3.11569066 33.09568-59.715584 50.57877333-119.44482133 101.16164267-179.16450134 151.73768533-42.18333867-0.51336533-84.373504-1.13322667-126.55957333-1.708032-20.53188267-0.270336-10.82026667-18.41834667-0.761856-26.832896 49.35953067-41.43786667 98.721792-82.878464 148.08405333-124.317696-25.65461333-18.817024-51.31605333-37.62858667-76.96110933-56.438784-13.365248-9.78397867-1.98656-37.32957867 8.04590933-45.52840533 98.463744-80.482304 196.9152-161.00010667 295.374848-241.50152533l117.00360534 0c-3.383296 14.37149867-1.81998933 33.103872-13.56458667 42.606592-83.54747733 67.57444267-167.092224 135.15298133-250.63970133 202.72469333C559.149056 389.51594667 586.563584 411.57290667 613.98766933 433.618944zM743.09632 586.371072c0 47.93685333-37.18212267 86.810624-83.03547733 86.810624-45.85608533 0-83.038208-38.87240533-83.038208-86.810624 0-47.93685333 37.18212267-86.810624 83.038208-86.810624C705.912832 499.56181333 743.09632 538.4342186700001 743.09632 586.371072zM246.76625067 429.73457067c-39.00074667-1.257472-78.004224-2.52040533-117.00497067-3.77514667 1.00352-9.109504-0.08328533-30.72 6.766592-36.46532267 62.78485333-52.416512 125.56970667-104.841216 188.350464-157.26318933 7.135232-5.94466133 26.13794133-10.40384 34.32174933-4.95342933 18.24085333 12.15419733 36.48170667 24.32068267 54.72256 36.478976 4.41821867 2.94775467 8.89378133 18.710528 4.53563734 22.22353066-51.56727467 41.627648-103.13864533 83.259392-154.70592 124.88430934C258.08759467 417.15712 252.42692267 423.44721067 246.76625067 429.73457067z"  horiz-adv-x="1024" />

    
    <glyph glyph-name="hongbao" unicode="&#58993;" d="M819.004139-127.653099L204.987674-127.653099c-75.352175 0-136.439462 61.09138-136.439462 136.448672L68.548212 690.999023 477.888088 554.551374l68.215638 0 409.346015 136.448672 0-682.204473C955.450764-66.56069600000001 894.357338-127.653099 819.004139-127.653099L819.004139-127.653099zM547.769668 215.59859200000005l99.019201 0.23843c24.798802-0.23843 33.634028 12.620435 34.090423 28.120454 0.382717 13.446243-12.320607 38.783305-34.69008 39.390125l-98.985432 0 0 23.876804c0 0 75.133188 76.735685 94.632287 94.417393 19.435655 17.764596 24.348548 31.674397 12.33391 46.041616-12.177344 14.661931-33.646308 13.754259-49.365314 0.743944-15.951297-13.222139-92.681866-84.505649-92.681866-84.505649s-65.869197 68.023256-80.127945 81.70793c-12.80463 12.32777-39.98569 24.272823-54.612829 7.714705-15.261589-17.307178-3.397377-38.926568 6.160303-48.381917 9.530051-9.366322 91.958388-96.518241 91.958388-96.518241l-0.150426-26.224268c0 0-88.022753 0-103.290481 0-15.267728 0-28.756951-27.164686-28.271904-41.600467 0.490164-14.361079 12.05557-25.624611 28.238135-25.624611 16.175401 0 102.982466 0.600681 102.982466 0.600681l-0.224104-73.139787c0 0-91.719958 0-106.987686 0-15.267728 0-28.080545-15.377222-28.695552-29.811979-0.599657-14.442944 11.412934-34.008558 28.695552-34.008558 17.308201 0 106.754373 0 106.754373 0s-0.184195-25.022906 0.457418-35.446303c1.439792-23.277146 16.708544-32.80208 37.113269-33.18275 20.412912-0.388856 34.896788 16.693194 34.848693 31.967062-0.069585 12.622482-0.369414 36.661991-0.369414 36.661991s88.846514 0.157589 105.629759 0c16.783245-0.14224 29.330002 16.84362 28.647457 34.008558-0.599657 17.232476-11.032264 30.411637-36.505425 30.411637-25.480324 0-97.170087 0-97.170087 0L547.769668 215.59859200000005 547.769668 215.59859200000005zM546.104749 622.7792919999999L477.888088 622.7792919999999 68.549236 759.212614c0 75.363432 61.086264 136.440485 136.439462 136.440485l614.016465 0c75.352175 0 136.446625-61.077054 136.446625-136.440485L546.104749 622.7792919999999 546.104749 622.7792919999999z"  horiz-adv-x="1024" />

    
    <glyph glyph-name="zhifupeizhi" unicode="&#59161;" d="M1160.533333-128L68.266667-128C30.583467-128 0-88.47360000000003 0-50.79039999999998L0 622.933333 1228.8 622.933333 1228.8-50.79039999999998C1228.8-88.47360000000003 1198.216533-128 1160.533333-128ZM546.133333 418.133333L136.533333 418.133333 136.533333 281.6 546.133333 281.6 546.133333 418.133333ZM750.933333 418.133333L614.4 418.133333 614.4 281.6 750.933333 281.6 750.933333 418.133333ZM750.933333 145.06666700000005L136.533333 145.06666700000005 136.533333 8.53333299999997 750.933333 8.53333299999997 750.933333 145.06666700000005ZM0 836.676267C0 874.427733 30.583467 896 68.266667 896L1160.533333 896C1198.216533 896 1228.8 874.427733 1228.8 836.676267L1228.8 759.466667 0 759.466667 0 836.676267Z"  horiz-adv-x="1229" />

    
    <glyph glyph-name="ren" unicode="&#58884;" d="M938.666667 106.66666699999996c8.533333 17.066667 17.066667 29.866667 25.6 46.933333 4.266667 4.266667 4.266667 8.533333 4.266666 12.8 4.266667 12.8 12.8 25.6 17.066667 38.4 4.266667 4.266667 4.266667 8.533333 4.266667 17.066667 4.266667 12.8 8.533333 25.6 12.8 34.133333 0 4.266667 4.266667 12.8 4.266666 17.066667 4.266667 12.8 4.266667 25.6 8.533334 38.4 0 4.266667 4.266667 12.8 4.266666 17.066666 4.266667 17.066667 4.266667 38.4 4.266667 55.466667 0 281.6-230.4 512-512 512s-512-230.4-512-512c0-17.066667 0-38.4 4.266667-55.466667 0-4.266667 0-12.8 4.266666-17.066666 0-12.8 4.266667-25.6 4.266667-38.4 0-4.266667 4.266667-12.8 4.266667-17.066667 4.266667-12.8 8.533333-25.6 12.8-34.133333 0-4.266667 4.266667-8.533333 4.266666-17.066667 4.266667-12.8 8.533333-25.6 17.066667-38.4 0-4.266667 4.266667-8.533333 4.266667-12.8 8.533333-17.066667 17.066667-29.866667 25.6-46.933333 89.6-140.8 247.466667-234.666667 426.666666-234.666667s337.066667 93.866667 430.933334 234.666667c-4.266667 0-4.266667 0 0 0zM507.733333 652.8c102.4 0 187.733333-85.333333 187.733334-187.733333 0-102.4-85.333333-187.733333-187.733334-187.733334s-187.733333 85.333333-187.733333 187.733334c0 102.4 85.333333 187.733333 187.733333 187.733333z m-311.466666-588.8c55.466667 123.733333 174.933333 204.8 311.466666 204.8s256-81.066667 311.466667-204.8c-81.066667-76.8-192-128-311.466667-128-119.466667 4.266667-230.4 51.2-311.466666 128z"  horiz-adv-x="1024" />

    
    <glyph glyph-name="gongnengguanli" unicode="&#58885;" d="M-9.40506327 842.32868598c0 27.01183557 21.88028587 48.90636137 48.90506682 48.90636137H382.92158894c27.01054103 0 48.90506683-21.88158041 48.90506683-48.90636137v-343.42029083c0-27.01183557-21.88028587-48.90636137-48.90506683-48.90636137H39.50000355c-27.01054103 0-48.90506683 21.88158041-48.90506682 48.90636137V842.32868598z m738.57550917 65.93989594c19.09702859 19.09832311 50.04943867 19.1112685 69.16070717 0L1041.17358743 665.43262025c19.09314497-19.09832311 19.10220674-50.05591135 0-69.1620017L798.33115307 353.43595141000003c-19.09702859-19.10738489-50.05073319-19.11515212-69.16070717 0L486.33189515 596.269324c-19.09702859 19.09832311-19.1112685 50.0546168 0 69.16200171l242.83855075 242.83725621zM551.97534183 263.27783348c0 27.00665742 21.8776968 48.9011832 48.9076559 48.90118321h343.41511269c27.01183557 0 48.90636137-21.8776968 48.90636137-48.90247776v-343.42417445c0-27.00795197-21.8776968-48.90247775-48.90636137-48.90247774H600.88299773c-27.01313011 0-48.9076559 21.88158041-48.9076559 48.90247774V263.27653893z m-561.3804051 0c0 27.00665742 21.88028587 48.9011832 48.90506682 48.90118321H382.92158894c27.01054103 0 48.90506683-21.8776968 48.90506683-48.90247776v-343.42417445c0-27.00795197-21.88028587-48.90247775-48.90506683-48.90247774H39.50000355c-27.01054103 0-48.90506683 21.88158041-48.90506682 48.90247774V263.27653893z"  horiz-adv-x="1024" />

    
    <glyph glyph-name="anquan" unicode="&#58919;" d="M848.457143 768c0 0-58.514286 0-153.6 36.571429-102.4 36.571429-164.571429 76.8-164.571429 76.8L501.028571 896 475.428571 881.371429c0 0-65.828571-40.228571-164.571429-76.8-98.742857-32.914286-153.6-36.571429-153.6-36.571429L109.714286 764.342857l0-504.685714C109.714286 73.14285700000005 457.142857-128 501.028571-128c40.228571 0 391.314286 201.142857 391.314286 387.657143l0 504.685714L848.457143 768zM475.428571 186.51428599999997l-182.857143 168.228571 54.857143 69.485714 117.028571-106.057143 219.428571 274.285714 65.828571-62.171429L475.428571 186.51428599999997 475.428571 186.51428599999997z"  horiz-adv-x="1024" />

    
    <glyph glyph-name="shared" unicode="&#58907;" d="M900.3614811-133.81530851000002H123.6385189a129.45382741 129.45382741 0 0 0-129.45382741 129.45382741V772.3614811a129.45382741 129.45382741 0 0 0 129.45382741 129.45382741h776.7229622a129.45382741 129.45382741 0 0 0 129.45382741-129.45382741v-776.7229622a129.45382741 129.45382741 0 0 0-129.45382741-129.45382741z m-309.97718926 597.17050481a155.34459221 155.34459221 0 0 1 95.86055965-33.07545259 139.03340999 139.03340999 0 1 1-149.32499002 138.6450489 132.56071851 132.56071851 0 0 1 3.10689224-28.35038891L376.0734811 413.70965333a130.81309184 130.81309184 0 0 1-63.23819406 16.57009038 115.92590222 115.92590222 0 1 1 0-231.20453632 127.96510777 127.96510777 0 0 1 93.78929778 40.32486742l231.46344334-71.65269334a86.60460999 86.60460999 0 0 1-1.61817373-14.88718961 99.87362816 99.87362816 0 1 1 99.54999296 92.43003221 103.56306147 103.56306147 0 0 1-62.78510592-21.23042702L436.91678037 318.10800185000005a108.28812629 108.28812629 0 0 1-10.61521408 43.69066666z"  horiz-adv-x="1024" />

    
    <glyph glyph-name="yun" unicode="&#58915;" d="M660.053333 896c-208.938667 0-379.733333-157.077333-394.56-356.010667C111.872 497.536 0 367.36 0 213.33333300000004c0-181.674667 155.669333-330.944 352-341.333333h660.053333C1230.570667-128 1408 53.525333000000046 1408 277.33333300000004c0 215.765333-173.802667 391.466667-392.96 404.138667C950.4 808.448 816 896 660.053333 896z"  horiz-adv-x="1408" />

    
    <glyph glyph-name="hezuo" unicode="&#58970;" d="M1004.8 548.266667l-181.333333 181.333333c-25.6 25.6-66.133333 25.6-89.6 0l-130.133334-130.133333-192 194.133333c-25.6 25.6-66.133333 25.6-89.6 0L19.2 490.666667c-25.6-25.6-25.6-66.133333 0-91.733334l422.4-422.4c25.6-25.6 66.133333-25.6 89.6 0L834.133333 277.33333300000004c6.4 6.4 10.666667 12.8 12.8 21.333334l157.866667 157.866666c25.6 25.6 25.6 66.133333 0 91.733334z m-198.4-234.666667c0-2.133333-2.133333-4.266667-4.266667-6.4l-44.8-44.8-196.266666 196.266667c-8.533333 8.533333-21.333333 8.533333-29.866667 0-8.533333-8.533333-8.533333-21.333333 0-29.866667l196.266667-196.266667-59.733334-59.733333-270.933333 270.933333c-8.533333 8.533333-21.333333 8.533333-29.866667 0-8.533333-8.533333-8.533333-21.333333 0-29.866666l270.933334-273.066667-61.866667-59.733333-196.266667 196.266666c-8.533333 8.533333-21.333333 8.533333-29.866666 0-8.533333-8.533333-8.533333-21.333333 0-29.866666l196.266666-196.266667-44.8-44.8c-8.533333-8.533333-21.333333-8.533333-29.866666 0L49.066667 428.8c-8.533333 8.533333-8.533333 21.333333 0 29.866667L349.866667 761.6c8.533333 8.533333 21.333333 8.533333 29.866666 0l206.933334-209.066667 14.933333-14.933333 200.533333-200.533333c4.266667-4.266667 6.4-10.666667 6.4-17.066667 0-2.133333 0-4.266667-2.133333-6.4z m168.533333 172.8l-132.266666-132.266667c-2.133333 4.266667-6.4 8.533333-10.666667 12.8l-200.533333 200.533334 130.133333 130.133333c8.533333 8.533333 21.333333 8.533333 29.866667 0l181.333333-181.333333c10.666667-6.4 10.666667-21.333333 2.133333-29.866667z"  horiz-adv-x="1024" />

    
    <glyph glyph-name="youhuiquan1" unicode="&#58981;" d="M983.32700108 295.6261869c-58.91587498 29.45793813-76.59063708 53.02428761-76.59063837 100.15698783 0 44.18690591 17.6747621 67.75325667 76.59063837 100.15698784 32.40373117 20.62055644 35.3495255 38.29531854 35.3495255 67.75325667v167.91024453c0 53.02428761-44.18690591 97.21119351-97.21119481 97.2111935H84.85990483c-53.02428761 0-97.21119351-44.18690591-97.21119351-97.2111935v-167.91024453c0-26.51214381 2.94579434-50.07849328 35.3495255-67.75325667 23.56634947-11.78317473 76.59063708-41.24111287 76.59063708-100.15698784 0-64.80746235-38.29531854-85.42801878-73.64484404-97.21119351h-2.94579304c-32.40373117-20.62055644-35.3495255-53.02428761-35.3495255-67.75325667v-167.91024451c0-53.02428761 44.18690591-97.21119351 97.21119351-97.21119351h836.60542694c53.02428761 0 97.21119351 44.18690591 97.21119481 97.21119351v167.91024451c0 32.40373117-11.78317473 44.18690591-35.3495255 64.80746235z m-324.03731301 58.91587497c17.6747621 0 32.40373117-14.72896907 32.40373117-32.40373118s-14.72896907-32.40373117-32.40373117-32.40373116h-123.7233386v-123.72333731c0-17.6747621-14.72896907-32.40373117-32.40373117-32.40373118s-32.40373117 14.72896907-32.40373117 32.40373118v123.72333731h-123.72333731c-17.6747621 0-32.40373117 14.72896907-32.40373117 32.40373116s14.72896907 32.40373117 32.40373117 32.40373118h123.72333731v76.59063836h-132.56071901c-17.6747621 0-32.40373117 14.72896907-32.40373117 32.40373118s14.72896907 32.40373117 32.40373117 32.40373116h97.2111948l-103.10278216 103.10278218c-11.78317473 11.78317473-11.78317473 32.40373117 0 44.18690591 11.78317473 11.78317473 32.40373117 11.78317473 44.1869059 0l126.66913164-126.66913164 126.66913164 126.66913164c11.78317473 11.78317473 32.40373117 11.78317473 44.1869072 0 11.78317473-11.78317473 11.78317473-32.40373117 0-44.18690591l-103.10278216-103.10278218h94.26540047c17.6747621 0 32.40373117-14.72896907 32.40373116-32.40373116s-14.72896907-32.40373117-32.40373116-32.40373118h-132.56071901v-76.59063836h126.66913163z"  horiz-adv-x="1024" />

    
    <glyph glyph-name="huojian" unicode="&#58893;" d="M531.45691022 730.16989013l0.10097399 0.09320676c128.06608213 128.08161659 306.16089031 173.62865115 464.48033184 134.95561481 38.68080355-158.32720877-6.87399822-336.41424972-134.94784757-464.48809908-1.77092835-1.77092835-3.54962395-3.52632225-5.34385399-5.26618169l-70.43323828-70.44100551 58.23092054-102.87695644a93.20675555 93.20675555 0 0 0-4.59819995-99.13315176l-153.24744059-220.33300291c-29.38342969-42.25372918-87.47454009-52.68511858-129.73603651-23.30168889a93.20675555 93.20675555 0 0 0-4.50499318 3.34767597l0.39612871 0.4971027a50.51029428 50.51029428 0 0 0-18.02773998 66.11465861 42.0207123 42.0207123 0 0 1-0.1087412 0.04660338c30.33879893 51.79188717 33.99716409 119.537664 13.40623833 188.6660077-75.22561897-16.777216-157.14658987 4.1166317-215.68043235 62.64270697-58.51830803 58.51830803-79.4043885 140.41597725-62.65824142 215.62606174-69.08950755 20.56762405-136.80421547 16.90149168-188.57280096-13.4217728a42.76636635 42.76636635 0 0 1-0.04660337 0.10874121 50.51029428 50.51029428 0 0 0-66.1146586 18.01997275l-0.43496486-0.3417581c-28.41252598 36.5681171-25.82603852 89.42411472 7.76722963 123.01738287a93.20675555 93.20675555 0 0 0 12.6916532 10.6178029l220.45727858 153.32511289a93.20675555 93.20675555 0 0 0 98.93897102 4.70694116l102.43422437-57.66391278 73.26050986 73.26050986c0.75342128 0.7611885 1.52237701 1.49907532 2.29133274 2.22142768z m-317.36900267-459.79669238c21.69387235-55.82307935 45.25187982-96.43792308 70.66625517-121.85229843 24.89397097-24.89397097 63.22524918-46.85969635 115.0016019-65.88940895a23.30168889 23.30168889 0 0 0 5.94193067-40.51386975l-88.42214211-66.30883934a23.30168889 23.30168889 0 0 0-36.63802216 24.07064462l3.86031313 16.10923425a23.30168889 23.30168889 0 0 1-33.83405227 25.88040913l-77.99075271-42.62655621a23.30168889 23.30168889 0 0 0-31.62039182 31.61262458l45.4848967 83.23363272a23.30168889 23.30168889 0 0 1-23.74442097 34.24571544l-39.23227686-5.61570703a23.30168889 23.30168889 0 0 0-21.9424237 37.04968534l72.10319265 96.14276836a23.30168889 23.30168889 0 0 0 40.35852515-5.53803473zM644.53223917 513.7127348199999c36.39723805-36.40500528 95.41264877-36.40500528 131.80988681 0 36.40500528 36.38947082 36.40500528 95.40488155 0 131.80988681-36.39723805 36.39723805-95.41264877 36.39723805-131.80988681 0-36.39723805-36.40500528-36.39723805-95.420416 0-131.80988681z"  horiz-adv-x="1024" />

    
    <glyph glyph-name="hezuo1" unicode="&#58882;" d="M512-116c-275.7 0-500 224.3-500 500S236.3 884 512 884s500-224.3 500-500-224.3-500-500-500z m0 957.6C259.7 841.6 54.4 636.3 54.4 384S259.7-73.60000000000002 512-73.60000000000002 969.6 131.70000000000005 969.6 384 764.3 841.6 512 841.6zM500.2 123c-10.4 0-20.2 4.1-27.5 11.4L218.8 388.3c-7.3 7.3-11.4 17.1-11.4 27.5 0 10.4 4.1 20.2 11.4 27.5l190.4 190.4c7.3 7.3 17.1 11.4 27.5 11.4 10.4 0 20.2-4.1 27.5-11.4l65.1-65.1 62.5 62.5c7.3 7.3 17.1 11.4 27.5 11.4 10.4 0 20.2-4.1 27.5-11.4l158.5-158.5c7.3-7.3 11.4-17.1 11.4-27.5 0-10.4-4.1-20.2-11.4-27.5l-71.7-71.7-3.8 3.8-3.2-9.5c-2.2-6.3-4.7-11.4-8.8-15.2L527.3 134.70000000000005c-7.2-7.9-17-11.7-27.1-11.7z m-63.5 480c-7.6 0-14.8-3.2-20.5-8.5L257.6 436c-5.4-5.4-8.5-12.6-8.5-20.5 0-7.6 3.2-14.8 8.5-20.5l222.3-222.3c5.4-5.4 12.6-8.5 20.5-8.5 7.6 0 14.8 3.2 20.5 8.5l12 12-124 124c-1.9 1.9-1.9 5.1 0 6.9l15.8 15.8c0.9 0.9 2.2 1.6 3.8 1.6 1.3 0 2.8-0.6 3.8-1.6l124.1-124.1 33.2 33.2-113.1 113c-1.9 1.9-1.9 5.1 0 6.9l15.8 15.8c0.9 0.9 2.2 1.6 3.8 1.6 1.3 0 2.8-0.6 3.8-1.6L613 263.1l33.2 33.2-102.6 102c-1.9 1.9-1.9 5.1 0 6.9l15.8 15.8c0.9 0.9 2.2 1.6 3.8 1.6 1.3 0 2.8-0.6 3.8-1.6l101.7-101.7 12 12c5.4 5.4 8.5 12.6 8.5 20.5 0 7.6-3.2 14.8-8.5 20.5L458.2 594.8c-6.7 5.4-13.9 8.2-21.5 8.2z m182.5-2.8c-7.6 0-14.8-3.2-20.5-8.5l-46.4-46.4 167.4-167.4 46.4 46.4c5.4 5.4 8.5 12.6 8.5 20.5s-3.2 14.8-8.5 20.5l-127 127c-5.4 5.1-12.5 7.9-19.9 7.9z m0 0"  horiz-adv-x="1024" />

    
    <glyph glyph-name="huoche" unicode="&#59120;" d="M-7.62311111 289.90577778V-1.7066666700000042c0-12.51555555 10.24-22.75555555 22.75555556-22.75555555h3.5271111c11.37777778 0 20.82133333 8.41955555 22.528 19.56977777 9.44355555 62.91911111 63.82933333 111.27466667 129.36533334 111.27466667s119.92177778-48.24177778 129.36533333-111.27466667c1.70666667-11.264 11.15022222-19.56977778 22.528-19.56977777H368.64c12.51555555 0 22.75555555 10.24 22.75555555 22.75555555V503.46666667c0 12.51555555-10.24 22.75555555-22.75555555 22.75555555H248.03555555c-37.66044445 0-73.728-15.58755555-99.55555555-43.12177777L10.92266667 336.55466666999996c-11.94666667-12.62933333-18.54577778-29.35466667-18.54577778-46.64888889zM311.75111111 422.68444445v-163.84c0-12.51555555-10.24-22.75555555-22.75555556-22.75555556H94.77688889c-12.51555555 0-22.75555555 10.24-22.75555556 22.75555556v15.47377777c0 11.94666667 4.77866667 23.552 13.19822222 31.97155556l97.73511112 98.64533333c25.6 25.94133333 60.52977778 40.50488889 97.05244444 40.50488889h8.98844444c12.51555555 0 22.75555555-10.12622222 22.75555556-22.75555555zM461.14133333 674.13333333v-653.08444444c0-25.14488889 20.36622222-45.51111111 45.51111112-45.51111111h199.22488888c11.37777778 0 20.82133333 8.41955555 22.528 19.56977777 9.44355555 62.91911111 63.82933333 111.27466667 129.36533334 111.27466667 72.24888889 0 130.84444445-58.59555555 130.84444444-130.84444444 23.21066667 0 42.09777778 18.88711111 42.09777778 42.09777777V674.13333333c0 25.14488889-20.36622222 45.51111111-45.51111111 45.51111112H506.65244445c-25.14488889 0-45.51111111-20.36622222-45.51111112-45.51111112zM172.37333333 59.73333333000005c-51.65511111 0.91022222-93.63911111-41.07377778-92.72888888-92.72888888 0.91022222-48.69688889 40.61866667-88.40533333 89.31555555-89.31555556 51.65511111-0.91022222 93.63911111 41.07377778 92.72888889 92.72888889-0.91022222 48.69688889-40.61866667 88.40533333-89.31555556 89.31555555zM859.59111111 59.73333333000005c-51.65511111 0.91022222-93.63911111-41.07377778-92.72888889-92.72888888 0.91022222-48.69688889 40.61866667-88.40533333 89.31555556-89.31555556 51.65511111-0.91022222 93.63911111 41.07377778 92.72888889 92.72888889-0.91022222 48.69688889-40.61866667 88.40533333-89.31555556 89.31555555z"  horiz-adv-x="1024" />

    


  </font>
</defs>
</svg>
